<?xml version="1.0" encoding="UTF-8"?><!DOCTYPE svg PUBLIC "-//W3C//DTD SVG 1.1//EN" "http://www.w3.org/Graphics/SVG/1.1/DTD/svg11.dtd"><svg xmlns="http://www.w3.org/2000/svg" xmlns:xlink="http://www.w3.org/1999/xlink" version="1.1" id="Layer_1" x="0px" y="0px" width="64px" height="64px" viewBox="0 0 64 64" xml:space="preserve"><path fill="#3AD69E" d="M56.396 26.775c1.363-3.053 2.104-7.011 2.104-10.482 0-9.335-4.723-14.768-13.379-14.768-8.897 0-14.104 6.896-14.104 15.989 0 9.01 4.176 16.745 11.063 20.268-2.896 5.84-6.583 11.147-10.425 15.025C24.68 44.307 18.377 33 15.789 11H5.5c4.754 37 18.92 48.429 22.666 50.683 2.119 1.281 3.944 1.14 5.879.039 3.043-1.744 11.927-10.987 16.987-21.771 2.124-.006 4.968-.292 6.968-.872v-7.256c-1 .363-2.813.524-4.168.524-7.627 0-13.375-5.373-13.375-14.711 0-4.577 1.816-6.958 4.299-6.958 2.364 0 3.968 2.137 3.968 6.47 0 2.466-.641 5.164-1.123 6.763 0 0 2.366 4.133 8.795 2.864z"/><path fill="#2DB487" d="M40.582 17.636c0-4.577 1.754-6.958 4.236-6.958 2.364 0 3.937 2.137 3.937 6.47 0 2.466-.656 5.164-1.139 6.763 0 0 2.351 4.133 8.779 2.864 1.363-3.053 2.104-7.011 2.104-10.482 0-9.335-4.723-14.768-13.379-14.768-8.897 0-14.104 6.896-14.104 15.989 0 9.01 4.176 16.745 11.063 20.268-2.527 5.102-5.661 9.671-8.976 13.332-2.479 3.245-5.591 5.839-8.85 7.442 1.616 1.574 3.087 2.63 3.91 3.126 2.119 1.281 3.944 1.14 5.879.039 3.043-1.744 11.927-10.987 16.987-21.771 2.127-.005 4.971-.291 6.971-.871v-7.256c-1 .363-2.813.524-4.168.524-7.627 0-13.25-5.373-13.25-14.711z"/><path fill="#3AD69E" d="M58 39.079v-7.256c-1 .363-2.813.524-4.168.524-7.627 0-13.25-5.373-13.25-14.711 0-4.577 1.691-6.958 4.174-6.958 2.364 0 3.968 2.137 3.968 6.47 0 2.466-.641 5.164-1.123 6.763 0 0 2.358 4.133 8.787 2.864 1.363-3.053 2.108-7.011 2.108-10.482 0-9.335-4.721-14.768-13.377-14.768-8.897 0-14.103 6.896-14.103 15.989 0 8.961 4.136 16.659 10.958 20.208a39.1 39.1 0 0 0 2.441.745c3.233.865 6.193 1.283 9.284 1.311 1.46-.128 3.301-.346 4.301-.699z"/><path fill="#2DB487" d="M55.049 5.4C48.344.717 42.433 8.098 41.575 12.78c.755-1.388 1.89-2.102 3.243-2.102 2.364 0 3.937 2.137 3.937 6.47 0 2.466-.656 5.164-1.139 6.763 0 0 2.351 4.133 8.779 2.864 1.363-3.053 2.104-7.011 2.104-10.482.001-4.673-1.182-8.368-3.45-10.893z"/><path fill="#159B81" d="M42.073 11.999c2.935-3.703 9.525-6.484 15.106-3.162-.547-1.311-1.256-2.463-2.131-3.437-6.705-4.683-12.616 2.698-13.474 7.38.166-.307.355-.575.558-.817-.018.014-.037.023-.059.036z"/><path fill="#159B81" d="M44.416 38.467a35.67 35.67 0 0 1-2.335-.685c-3.191-1.658-6.009-4.651-7.874-7.652 2.14 3.719 4.635 5.994 7.874 7.652-.619 1.251-1.277 2.394-1.964 3.575.88.099 1.794.192 2.729.192 3.237 0 6.18-.606 8.422-1.626.004-.012.01-.012.014-.022.018 0 .037.004.052.003.158-.071.322-.139.473-.216a38.287 38.287 0 0 1-7.391-1.221z"/><metadata><rdf:RDF xmlns:rdf="http://www.w3.org/1999/02/22-rdf-syntax-ns#" xmlns:rdfs="http://www.w3.org/2000/01/rdf-schema#" xmlns:dc="http://purl.org/dc/elements/1.1/"><rdf:Description about="https://iconscout.com/legal#licenses" dc:title="v" dc:description="v" dc:publisher="Iconscout" dc:date="2018-01-30" dc:format="image/svg+xml" dc:language="en"><dc:creator><rdf:Bag><rdf:li>Roundicons.com</rdf:li></rdf:Bag></dc:creator></rdf:Description></rdf:RDF></metadata></svg>